<svg width="45" height="44" viewBox="0 0 45 44" fill="none" xmlns="http://www.w3.org/2000/svg">
<path opacity="0.2" d="M22.6225 44C34.6521 44 44.404 34.1503 44.404 22C44.404 9.84974 34.6521 0 22.6225 0C10.593 0 0.841064 9.84974 0.841064 22C0.841064 34.1503 10.593 44 22.6225 44Z" fill="#505050"/>
<path opacity="0.4" fill-rule="evenodd" clip-rule="evenodd" d="M22.6157 43.9862C34.6415 43.9862 44.3903 34.1396 44.3903 21.9931C44.3903 9.84665 34.6415 0 22.6157 0C10.5899 0 0.841064 9.84665 0.841064 21.9931C0.841064 34.1396 10.5899 43.9862 22.6157 43.9862Z" fill="url(#paint0_linear)"/>
<path fill-rule="evenodd" clip-rule="evenodd" d="M31.8094 16.4811C31.8094 17.0269 32.2897 17.4694 32.8834 17.4694C33.013 17.4692 33.1416 17.4473 33.2641 17.4046V26.4218C33.1061 26.3436 32.9324 26.3035 32.7565 26.3046C32.1628 26.3046 31.6825 26.7415 31.6825 27.2929C31.6912 27.6789 31.9229 28.024 32.2747 28.175L23.6324 32.7635C23.5087 32.2756 23.0734 31.9344 22.5747 31.9344C22.0761 31.9344 21.6408 32.2756 21.5171 32.7635L12.9675 28.2233C13.108 28.0566 13.1858 27.8453 13.1873 27.6264C13.1873 27.082 12.7055 26.6395 12.1119 26.6395C12.0359 26.6392 11.96 26.6465 11.8854 26.6616V17.4101C11.9467 17.4206 12.0088 17.4261 12.071 17.4266C12.6632 17.4266 13.145 16.9897 13.145 16.4384C13.1431 16.1881 13.0424 15.9489 12.8652 15.774L21.5472 11.1648C21.7143 11.591 22.1222 11.871 22.5761 11.871C23.03 11.871 23.4379 11.591 23.6051 11.1648L32.1929 15.7285C31.9553 15.9048 31.8133 16.1834 31.8094 16.4811ZM24.6886 25.4803C24.6886 25.4803 23.3867 26.2095 21.2033 25.8773V25.8759C21.2033 25.8759 19.4975 25.4555 18.8438 24.4507L31.3986 18.0373C31.3986 18.0373 31.7111 17.8443 31.6334 17.5686C31.5927 17.4269 31.4766 17.3204 31.3331 17.2929C31.1134 17.2683 30.892 17.3214 30.7068 17.4432L28.0716 18.8077C27.3639 17.8945 26.4469 17.1688 25.3996 16.6934C25.3996 16.6934 24.7336 16.222 23.0961 16.142V13.2282C23.0973 13.1466 23.0703 13.0671 23.0196 13.0035C22.9094 12.8846 22.75 12.8253 22.5898 12.8436C22.5898 12.8436 22.2541 12.8271 22.1804 13.2751V16.1696C22.1804 16.1696 20.4213 16.1434 18.9884 16.9966C18.2154 17.4029 17.5266 17.955 16.9592 18.6231L14.3909 17.3398C14.3909 17.3398 13.9051 17.1234 13.6485 17.4776C13.6485 17.4776 13.4097 17.8305 13.871 18.0717L16.4161 19.3867C15.92 20.2489 15.6829 21.2384 15.7337 22.2343C15.7337 22.2343 15.7051 23.2336 16.4297 24.612L13.8928 25.9559C13.7262 26.0184 13.6168 26.1803 13.6199 26.3597C13.6263 26.518 13.739 26.6512 13.8928 26.6823C14.1369 26.7284 14.3892 26.6749 14.5942 26.5334L16.8637 25.4045C16.8637 25.4045 17.7862 26.7994 19.361 27.3342C19.361 27.3342 20.9699 27.9462 22.1067 28.0234V30.5596C22.1059 30.6717 22.1347 30.7821 22.1899 30.8793C22.267 31.043 22.4282 31.1494 22.6075 31.155C22.7627 31.1527 22.9033 31.062 22.9705 30.9207C23.0222 30.8243 23.0485 30.7161 23.0469 30.6064V27.971C23.0469 27.971 24.9957 27.8745 26.2007 26.9786C26.2007 26.9786 27.3893 26.3005 28.0948 25.2612L30.9606 26.7305C30.9606 26.7305 31.4041 26.8573 31.4955 26.6271C31.5894 26.3942 31.4839 26.1279 31.2567 26.0248L28.5097 24.5541C28.5097 24.5541 28.7717 24.0069 28.7103 23.5148C28.6647 23.2026 28.4471 22.9437 28.1494 22.8477C28.1047 22.8317 28.0591 22.8183 28.0129 22.8077C27.4536 22.6977 26.8892 22.9718 26.6251 23.4817C26.5308 23.6591 26.4501 23.8434 26.3835 24.0331C26.3835 24.0331 25.809 25.0668 24.6886 25.4803Z" fill="white"/>
<path fill-rule="evenodd" clip-rule="evenodd" d="M20.3162 18.5073C20.3162 18.5073 17.8257 19.3798 18.0987 22.6878L25.2399 19.0118C25.2399 19.0118 23.2366 17.3577 20.3162 18.5073Z" fill="white"/>
<path fill-rule="evenodd" clip-rule="evenodd" d="M12.2065 17.0324C12.4962 17.0324 12.731 16.7955 12.731 16.5032C12.731 16.2108 12.4962 15.9739 12.2065 15.9739C11.9169 15.9739 11.6821 16.2108 11.6821 16.5032C11.6821 16.7955 11.9169 17.0324 12.2065 17.0324Z" fill="white"/>
<path fill-rule="evenodd" clip-rule="evenodd" d="M22.6161 11.4432C22.9058 11.4432 23.1406 11.2062 23.1406 10.9139C23.1406 10.6216 22.9058 10.3846 22.6161 10.3846C22.3265 10.3846 22.0917 10.6216 22.0917 10.9139C22.0917 11.2062 22.3265 11.4432 22.6161 11.4432Z" fill="white"/>
<path fill-rule="evenodd" clip-rule="evenodd" d="M22.6161 33.4968C22.9058 33.4968 23.1406 33.2598 23.1406 32.9675C23.1406 32.6752 22.9058 32.4382 22.6161 32.4382C22.3265 32.4382 22.0917 32.6752 22.0917 32.9675C22.0917 33.2598 22.3265 33.4968 22.6161 33.4968Z" fill="white"/>
<path fill-rule="evenodd" clip-rule="evenodd" d="M12.2065 28.0868C12.4962 28.0868 12.731 27.8498 12.731 27.5575C12.731 27.2652 12.4962 27.0282 12.2065 27.0282C11.9169 27.0282 11.6821 27.2652 11.6821 27.5575C11.6821 27.8498 11.9169 28.0868 12.2065 28.0868Z" fill="white"/>
<path fill-rule="evenodd" clip-rule="evenodd" d="M32.7419 27.8235C33.0316 27.8235 33.2664 27.5866 33.2664 27.2942C33.2664 27.0019 33.0316 26.765 32.7419 26.765C32.4523 26.765 32.2175 27.0019 32.2175 27.2942C32.2175 27.5866 32.4523 27.8235 32.7419 27.8235Z" fill="white"/>
<path fill-rule="evenodd" clip-rule="evenodd" d="M32.7419 17.0324C33.0316 17.0324 33.2664 16.7955 33.2664 16.5032C33.2664 16.2108 33.0316 15.9739 32.7419 15.9739C32.4523 15.9739 32.2175 16.2108 32.2175 16.5032C32.2175 16.7955 32.4523 17.0324 32.7419 17.0324Z" fill="white"/>
<defs>
<linearGradient id="paint0_linear" x1="28.3842" y1="46.3279" x2="28.3842" y2="-9.31098" gradientUnits="userSpaceOnUse">
<stop stop-color="#7400D4"/>
<stop offset="1" stop-color="#CA00AA"/>
</linearGradient>
</defs>
</svg>
