<svg xmlns="http://www.w3.org/2000/svg" xmlns:xlink="http://www.w3.org/1999/xlink" width="20.493" height="33.371" viewBox="0 0 20.493 33.371"><defs><style>.a{fill:#fff;}.b{opacity:0.6;}.c{clip-path:url(#a);}.d{opacity:0.45;}.e{clip-path:url(#b);}.f{opacity:0.8;}.g{clip-path:url(#c);}.h{clip-path:url(#d);}.i{clip-path:url(#e);}</style><clipPath id="a"><path class="a" d="M720.6,306.4h20.485v10.712H720.6Z" transform="translate(-720.6 -306.4)"/></clipPath><clipPath id="b"><path class="a" d="M720.6,0h10.244V23.05H720.6Z" transform="translate(-720.6)"/></clipPath><clipPath id="c"><path class="a" d="M975,0h10.245V23.05H975Z" transform="translate(-975)"/></clipPath><clipPath id="d"><path class="a" d="M720.6,470.3h10.244v14.432H720.6Z" transform="translate(-720.6 -470.3)"/></clipPath><clipPath id="e"><path class="a" d="M975,470.3h10.249v14.432H975Z" transform="translate(-975 -470.3)"/></clipPath></defs><g transform="translate(0)"><g class="b" transform="translate(0 12.339)"><g class="c"><path class="a" d="M730.844,306.4,720.6,311.059l10.244,6.053,10.24-6.053Z" transform="translate(-720.6 -306.4)"/></g></g><g class="d"><g class="e"><path class="a" d="M720.6,17l10.244,6.052V0Z" transform="translate(-720.6)"/></g></g><g class="f" transform="translate(10.244)"><g class="g" transform="translate(0)"><path class="a" d="M975,0V23.05L985.24,17Z" transform="translate(-975)"/></g></g><g class="d" transform="translate(0 18.939)"><g class="h"><path class="a" d="M720.6,470.3l10.244,14.432v-8.38Z" transform="translate(-720.6 -470.3)"/></g></g><g class="f" transform="translate(10.244 18.939)"><g class="i" transform="translate(0)"><path class="a" d="M975,476.352v8.38L985.248,470.3Z" transform="translate(-975 -470.3)"/></g></g></g></svg>