<svg width="437" height="437" viewBox="0 0 437 437" fill="none" xmlns="http://www.w3.org/2000/svg">
<path d="M344.746 343.246C414.196 273.796 414.196 161.196 344.746 91.746C275.296 22.296 162.696 22.296 93.2459 91.746C23.7959 161.196 23.7959 273.796 93.2459 343.246C162.696 412.696 275.296 412.696 344.746 343.246Z" fill="white" fill-opacity="0.04"/>
<path d="M372.996 372.996C458.324 287.668 458.324 149.324 372.996 63.996C287.668 -21.332 149.324 -21.332 63.996 63.996C-21.332 149.324 -21.332 287.668 63.996 372.996C149.324 458.324 287.668 458.324 372.996 372.996Z" fill="white" fill-opacity="0.04"/>
<path d="M314.45 314.45C367.461 261.439 367.461 175.492 314.45 122.481C261.439 69.47 175.492 69.47 122.481 122.481C69.47 175.492 69.47 261.439 122.481 314.45C175.492 367.461 261.439 367.461 314.45 314.45Z" fill="white"/>
<path d="M241.714 311.443C252.34 302.548 253.744 286.723 244.849 276.096C235.954 265.469 220.129 264.065 209.502 272.96C198.875 281.855 197.471 297.681 206.366 308.308C215.261 318.935 231.087 320.339 241.714 311.443Z" fill="#EBEBEB"/>
<path d="M202.433 294.521C202.428 289.478 203.944 284.551 206.783 280.384C209.623 276.217 213.653 273.004 218.348 271.164C223.042 269.323 228.183 268.942 233.098 270.07C238.013 271.198 242.473 273.782 245.896 277.485C243.893 274.711 241.343 272.376 238.403 270.625C235.463 268.873 232.196 267.743 228.803 267.302C225.41 266.861 221.962 267.121 218.673 268.063C215.383 269.006 212.322 270.612 209.677 272.783C207.032 274.954 204.859 277.643 203.293 280.686C201.727 283.728 200.801 287.059 200.571 290.473C200.341 293.887 200.813 297.312 201.957 300.537C203.102 303.762 204.894 306.718 207.225 309.224C204.11 304.954 202.432 299.806 202.433 294.521Z" fill="#DFDFDF"/>
<path d="M173.562 196.521C174.785 177.452 160.318 161.002 141.249 159.779C122.179 158.556 105.729 173.024 104.507 192.093C103.284 211.162 117.751 227.612 136.82 228.835C155.889 230.058 172.339 215.591 173.562 196.521Z" fill="#EBEBEB"/>
<path d="M107.067 197.512C107.063 190.559 109.155 183.766 113.071 178.02C116.988 172.275 122.545 167.844 129.019 165.307C135.493 162.769 142.581 162.243 149.358 163.797C156.136 165.35 162.287 168.912 167.009 174.016C164.248 170.184 160.732 166.958 156.677 164.537C152.621 162.116 148.113 160.553 143.43 159.942C138.747 159.331 133.988 159.687 129.447 160.986C124.907 162.286 120.681 164.502 117.03 167.499C113.38 170.495 110.382 174.207 108.221 178.407C106.061 182.607 104.784 187.205 104.47 191.917C104.155 196.629 104.81 201.356 106.393 205.806C107.976 210.255 110.454 214.333 113.674 217.788C109.379 211.9 107.066 204.8 107.067 197.512Z" fill="#DFDFDF"/>
<path d="M289.139 160.911C297.264 160.911 303.85 154.325 303.85 146.2C303.85 138.076 297.264 131.49 289.139 131.49C281.015 131.49 274.429 138.076 274.429 146.2C274.429 154.325 281.015 160.911 289.139 160.911Z" fill="#EBEBEB"/>
<path d="M275.553 147.57C275.55 144.613 276.439 141.723 278.105 139.28C279.77 136.836 282.133 134.951 284.886 133.872C287.639 132.793 290.654 132.569 293.536 133.23C296.418 133.892 299.034 135.407 301.041 137.578C299.867 135.949 298.372 134.578 296.648 133.55C294.924 132.521 293.007 131.857 291.016 131.597C289.025 131.338 287.002 131.489 285.072 132.042C283.142 132.595 281.345 133.537 279.793 134.811C278.241 136.085 276.966 137.663 276.048 139.448C275.129 141.233 274.586 143.188 274.452 145.191C274.318 147.195 274.596 149.204 275.269 151.096C275.941 152.988 276.994 154.722 278.363 156.191C276.536 153.687 275.553 150.668 275.553 147.57Z" fill="#DFDFDF"/>
<path d="M222.11 122.426C224.441 112.601 218.367 102.747 208.543 100.415C198.718 98.084 188.864 104.158 186.533 113.983C184.201 123.807 190.276 133.661 200.1 135.993C209.924 138.324 219.779 132.25 222.11 122.426Z" fill="#EBEBEB"/>
<path d="M187.436 119.905C187.433 116.23 188.538 112.639 190.608 109.603C192.677 106.566 195.614 104.224 199.036 102.883C202.457 101.542 206.204 101.264 209.786 102.086C213.368 102.908 216.618 104.791 219.113 107.489C217.655 105.463 215.797 103.758 213.654 102.479C211.51 101.199 209.128 100.372 206.653 100.049C204.178 99.727 201.663 99.914 199.263 100.601C196.864 101.288 194.63 102.46 192.701 104.043C190.772 105.627 189.187 107.589 188.046 109.809C186.905 112.029 186.23 114.459 186.065 116.949C185.899 119.44 186.246 121.938 187.083 124.289C187.921 126.641 189.231 128.795 190.934 130.621C188.662 127.509 187.437 123.757 187.436 119.905Z" fill="#DFDFDF"/>
<path d="M231.153 113.073C229.462 113.073 227.809 112.572 226.403 111.632C224.996 110.693 223.9 109.357 223.253 107.795C222.606 106.232 222.437 104.513 222.767 102.854C223.097 101.196 223.912 99.672 225.108 98.477C226.303 97.281 227.827 96.467 229.486 96.137C231.145 95.807 232.864 95.977 234.426 96.624C235.988 97.271 237.324 98.368 238.263 99.774C239.202 101.18 239.703 102.833 239.703 104.525C239.703 105.647 239.482 106.759 239.052 107.796C238.623 108.834 237.993 109.776 237.199 110.57C236.405 111.364 235.462 111.993 234.425 112.423C233.387 112.852 232.276 113.073 231.153 113.073Z" fill="#EBEBEB"/>
<path d="M223.258 105.32C223.256 103.602 223.772 101.922 224.74 100.502C225.707 99.081 227.081 97.986 228.681 97.358C230.282 96.731 232.034 96.601 233.709 96.986C235.384 97.37 236.905 98.251 238.071 99.513C237.389 98.567 236.52 97.771 235.518 97.173C234.516 96.576 233.402 96.19 232.245 96.039C231.088 95.888 229.912 95.976 228.791 96.298C227.669 96.619 226.625 97.166 225.723 97.906C224.821 98.646 224.081 99.563 223.547 100.601C223.013 101.638 222.697 102.774 222.619 103.938C222.541 105.102 222.702 106.27 223.093 107.369C223.483 108.469 224.095 109.476 224.89 110.33C223.829 108.875 223.258 107.121 223.258 105.32Z" fill="#DFDFDF"/>
<path d="M95.871 227.015C94.18 227.016 92.527 226.515 91.12 225.575C89.714 224.636 88.618 223.301 87.971 221.738C87.323 220.176 87.154 218.457 87.483 216.798C87.813 215.139 88.627 213.616 89.823 212.42C91.019 211.224 92.542 210.409 94.201 210.079C95.859 209.749 97.579 209.919 99.141 210.566C100.704 211.213 102.039 212.309 102.979 213.715C103.918 215.121 104.42 216.774 104.42 218.465C104.42 220.733 103.519 222.907 101.916 224.511C100.313 226.114 98.138 227.015 95.871 227.015Z" fill="#EBEBEB"/>
<path d="M87.975 219.261C87.973 217.542 88.489 215.863 89.457 214.442C90.424 213.022 91.798 211.926 93.398 211.299C94.999 210.672 96.751 210.542 98.426 210.926C100.101 211.311 101.622 212.192 102.788 213.454C102.105 212.51 101.236 211.716 100.234 211.121C99.233 210.526 98.12 210.141 96.964 209.992C95.809 209.843 94.635 209.932 93.515 210.253C92.395 210.574 91.352 211.121 90.452 211.861C89.551 212.6 88.811 213.515 88.278 214.551C87.744 215.587 87.428 216.721 87.349 217.884C87.27 219.046 87.43 220.212 87.818 221.311C88.207 222.409 88.816 223.417 89.608 224.271C88.547 222.816 87.974 221.062 87.975 219.261Z" fill="#DFDFDF"/>
<path d="M143.448 156.192C142.602 156.192 141.776 155.941 141.073 155.471C140.37 155.002 139.822 154.334 139.499 153.553C139.175 152.772 139.091 151.913 139.256 151.083C139.42 150.254 139.827 149.493 140.425 148.895C141.023 148.297 141.785 147.89 142.614 147.725C143.443 147.56 144.302 147.645 145.083 147.968C145.864 148.292 146.532 148.84 147.002 149.543C147.471 150.246 147.722 151.072 147.722 151.917C147.722 152.479 147.612 153.035 147.397 153.553C147.182 154.072 146.868 154.543 146.471 154.94C146.074 155.337 145.602 155.652 145.084 155.867C144.565 156.081 144.009 156.192 143.448 156.192Z" fill="#EBEBEB"/>
<path d="M139.5 152.314C139.499 151.455 139.757 150.615 140.241 149.905C140.725 149.195 141.411 148.647 142.211 148.333C143.012 148.02 143.888 147.955 144.725 148.147C145.563 148.34 146.323 148.78 146.906 149.412C146.565 148.937 146.131 148.538 145.63 148.238C145.128 147.938 144.571 147.744 143.992 147.668C143.413 147.592 142.824 147.635 142.263 147.796C141.701 147.956 141.178 148.23 140.727 148.601C140.275 148.971 139.904 149.43 139.637 149.95C139.37 150.469 139.213 151.038 139.174 151.621C139.136 152.204 139.217 152.788 139.414 153.338C139.61 153.888 139.917 154.392 140.316 154.819C139.785 154.092 139.499 153.215 139.5 152.314Z" fill="#DFDFDF"/>
<path d="M113.444 235.565C112.598 235.565 111.772 235.314 111.069 234.845C110.366 234.375 109.818 233.707 109.495 232.926C109.171 232.145 109.087 231.286 109.252 230.457C109.417 229.628 109.824 228.866 110.421 228.268C111.019 227.67 111.781 227.263 112.61 227.098C113.439 226.933 114.298 227.018 115.079 227.342C115.861 227.665 116.528 228.213 116.998 228.916C117.467 229.619 117.718 230.445 117.718 231.291C117.718 232.424 117.268 233.511 116.466 234.313C115.665 235.115 114.577 235.565 113.444 235.565Z" fill="#EBEBEB"/>
<path d="M109.488 231.688C109.485 230.826 109.742 229.983 110.227 229.271C110.712 228.558 111.4 228.009 112.203 227.695C113.005 227.381 113.884 227.317 114.723 227.511C115.563 227.706 116.324 228.15 116.906 228.785C116.566 228.31 116.131 227.911 115.63 227.611C115.129 227.311 114.572 227.117 113.993 227.041C113.413 226.965 112.825 227.009 112.263 227.169C111.702 227.33 111.179 227.604 110.727 227.974C110.276 228.345 109.905 228.804 109.638 229.323C109.371 229.843 109.213 230.411 109.175 230.994C109.136 231.577 109.218 232.162 109.414 232.712C109.611 233.262 109.918 233.766 110.317 234.192C109.781 233.467 109.491 232.589 109.488 231.688Z" fill="#DFDFDF"/>
<path d="M259.298 289.124C258.453 289.125 257.626 288.874 256.922 288.404C256.219 287.935 255.671 287.267 255.347 286.486C255.023 285.705 254.938 284.845 255.103 284.015C255.268 283.186 255.675 282.424 256.273 281.825C256.871 281.227 257.633 280.82 258.462 280.655C259.291 280.49 260.151 280.574 260.933 280.898C261.714 281.221 262.382 281.769 262.852 282.473C263.322 283.176 263.573 284.003 263.573 284.848C263.573 285.982 263.122 287.07 262.321 287.871C261.519 288.673 260.432 289.124 259.298 289.124Z" fill="#EBEBEB"/>
<path d="M255.352 285.248C255.35 284.388 255.609 283.549 256.093 282.838C256.576 282.128 257.263 281.58 258.063 281.267C258.863 280.953 259.739 280.888 260.577 281.081C261.414 281.273 262.174 281.714 262.757 282.345C262.417 281.87 261.982 281.471 261.481 281.171C260.98 280.871 260.423 280.677 259.844 280.601C259.265 280.525 258.676 280.569 258.114 280.729C257.553 280.89 257.03 281.164 256.579 281.534C256.127 281.905 255.756 282.364 255.489 282.883C255.222 283.403 255.065 283.971 255.026 284.554C254.988 285.137 255.069 285.722 255.265 286.272C255.462 286.822 255.769 287.326 256.168 287.752C255.637 287.025 255.351 286.148 255.352 285.248Z" fill="#DFDFDF"/>
<path d="M287.736 171.262C286.89 171.262 286.064 171.011 285.361 170.542C284.658 170.072 284.11 169.404 283.787 168.623C283.463 167.842 283.379 166.983 283.544 166.154C283.709 165.325 284.116 164.563 284.713 163.965C285.311 163.367 286.073 162.96 286.902 162.795C287.731 162.63 288.59 162.715 289.371 163.039C290.153 163.362 290.82 163.91 291.29 164.613C291.759 165.316 292.01 166.142 292.01 166.988C292.01 168.121 291.56 169.208 290.758 170.01C289.957 170.812 288.869 171.262 287.736 171.262Z" fill="#EBEBEB"/>
<path d="M283.788 167.385C283.787 166.526 284.045 165.686 284.529 164.976C285.013 164.265 285.699 163.718 286.5 163.404C287.3 163.09 288.176 163.026 289.013 163.218C289.851 163.41 290.611 163.851 291.194 164.482C290.853 164.008 290.419 163.608 289.918 163.308C289.416 163.008 288.859 162.814 288.28 162.738C287.701 162.662 287.112 162.706 286.551 162.866C285.989 163.027 285.466 163.301 285.015 163.671C284.563 164.042 284.193 164.501 283.926 165.021C283.659 165.54 283.501 166.109 283.462 166.692C283.424 167.274 283.505 167.859 283.702 168.409C283.898 168.959 284.205 169.463 284.604 169.89C284.073 169.162 283.788 168.285 283.788 167.385Z" fill="#DFDFDF"/>
<path d="M329.278 206.144C327.586 206.144 325.933 205.642 324.527 204.703C323.121 203.763 322.025 202.428 321.378 200.865C320.731 199.303 320.562 197.584 320.892 195.925C321.222 194.266 322.036 192.743 323.232 191.547C324.428 190.351 325.952 189.537 327.611 189.208C329.269 188.878 330.988 189.047 332.551 189.695C334.113 190.342 335.448 191.438 336.388 192.845C337.327 194.251 337.828 195.904 337.828 197.595C337.827 199.863 336.926 202.037 335.323 203.64C333.72 205.243 331.545 206.144 329.278 206.144Z" fill="#EBEBEB"/>
<path d="M321.383 198.391C321.38 196.672 321.897 194.993 322.865 193.572C323.832 192.152 325.206 191.056 326.806 190.429C328.406 189.802 330.159 189.672 331.834 190.056C333.509 190.441 335.029 191.322 336.196 192.584C335.514 191.638 334.644 190.841 333.642 190.244C332.64 189.646 331.527 189.26 330.37 189.11C329.213 188.959 328.037 189.047 326.916 189.368C325.794 189.689 324.75 190.237 323.848 190.977C322.946 191.717 322.206 192.634 321.672 193.671C321.138 194.709 320.822 195.845 320.744 197.009C320.666 198.173 320.827 199.34 321.218 200.44C321.608 201.539 322.22 202.547 323.015 203.401C321.953 201.946 321.382 200.192 321.383 198.391Z" fill="#DFDFDF"/>
<path d="M274.431 328.939C272.74 328.939 271.087 328.438 269.681 327.498C268.275 326.559 267.179 325.223 266.532 323.661C265.885 322.098 265.716 320.379 266.046 318.721C266.376 317.062 267.19 315.538 268.386 314.343C269.582 313.147 271.106 312.333 272.764 312.003C274.423 311.673 276.142 311.843 277.705 312.49C279.267 313.138 280.602 314.234 281.541 315.64C282.481 317.046 282.982 318.7 282.982 320.391C282.981 322.658 282.08 324.833 280.477 326.436C278.873 328.039 276.699 328.939 274.431 328.939Z" fill="#EBEBEB"/>
<path d="M266.541 321.186C266.539 319.467 267.056 317.789 268.024 316.369C268.991 314.949 270.365 313.854 271.965 313.227C273.565 312.6 275.316 312.47 276.991 312.854C278.666 313.238 280.186 314.119 281.352 315.38C280.669 314.437 279.8 313.643 278.798 313.047C277.797 312.452 276.684 312.068 275.528 311.919C274.373 311.769 273.199 311.858 272.079 312.179C270.959 312.501 269.917 313.048 269.016 313.787C268.115 314.526 267.375 315.442 266.842 316.478C266.308 317.513 265.992 318.647 265.913 319.81C265.834 320.972 265.994 322.139 266.382 323.237C266.771 324.336 267.38 325.343 268.173 326.197C267.111 324.742 266.54 322.987 266.541 321.186Z" fill="#DFDFDF"/>
<path d="M260.617 275.052C268.245 275.052 274.429 268.868 274.429 261.241C274.429 253.613 268.245 247.43 260.617 247.43C252.99 247.43 246.806 253.613 246.806 261.241C246.806 268.868 252.99 275.052 260.617 275.052Z" fill="#EBEBEB"/>
<path d="M247.863 262.525C247.86 259.749 248.694 257.036 250.257 254.742C251.82 252.447 254.039 250.678 256.624 249.665C259.209 248.651 262.039 248.442 264.745 249.063C267.451 249.684 269.906 251.107 271.79 253.146C270.688 251.617 269.284 250.331 267.666 249.365C266.047 248.4 264.248 247.777 262.379 247.533C260.51 247.29 258.611 247.432 256.799 247.951C254.988 248.47 253.301 249.354 251.845 250.55C250.388 251.745 249.191 253.227 248.329 254.903C247.467 256.578 246.957 258.413 246.831 260.293C246.705 262.174 246.965 264.06 247.596 265.836C248.227 267.612 249.215 269.24 250.499 270.619C248.785 268.268 247.862 265.434 247.863 262.525Z" fill="#DFDFDF"/>
<path d="M175.448 311.841C183.076 311.841 189.259 305.658 189.259 298.03C189.259 290.402 183.076 284.219 175.448 284.219C167.821 284.219 161.637 290.402 161.637 298.03C161.637 305.658 167.821 311.841 175.448 311.841Z" fill="#EBEBEB"/>
<path d="M162.695 299.314C162.693 296.538 163.527 293.826 165.091 291.531C166.654 289.237 168.873 287.468 171.458 286.455C174.042 285.442 176.872 285.232 179.578 285.853C182.284 286.474 184.74 287.897 186.624 289.935C185.521 288.408 184.117 287.123 182.499 286.159C180.881 285.195 179.082 284.572 177.214 284.33C175.346 284.087 173.448 284.23 171.637 284.749C169.826 285.267 168.14 286.152 166.684 287.347C165.228 288.542 164.032 290.022 163.17 291.697C162.307 293.372 161.797 295.206 161.67 297.085C161.543 298.965 161.803 300.85 162.433 302.626C163.062 304.401 164.049 306.029 165.331 307.408C163.618 305.058 162.695 302.223 162.695 299.314Z" fill="#DFDFDF"/>
<path opacity="0.2" d="M188.501 301.908C154.404 301.804 121.179 291.117 93.415 271.323C106.903 303.235 132.08 328.782 163.792 342.734C195.504 356.685 231.349 357.985 263.988 346.366C296.627 334.748 323.588 311.09 339.351 280.239C355.114 249.388 358.485 213.677 348.774 180.421C339.111 215.462 318.178 246.347 289.21 268.305C260.242 290.262 224.85 302.071 188.501 301.908Z" fill="#B8B8B8"/>
<path opacity="0.2" d="M199.755 326.332C167.448 326.232 135.885 316.628 108.997 298.718C125.71 321.522 149.128 338.538 175.981 347.387C202.834 356.237 231.78 356.479 258.777 348.079C285.774 339.679 309.473 323.058 326.565 300.536C343.657 278.013 353.287 250.715 354.112 222.454C341.762 253.248 320.441 279.618 292.916 298.141C265.391 316.665 232.933 326.487 199.755 326.332Z" fill="#B8B8B8"/>
</svg>
